<?xml version="1.0" encoding="UTF-8"?>
<svg id="_Слой_1" data-name="Слой 1" xmlns="http://www.w3.org/2000/svg" viewBox="0 0 96 128">
  <defs>
    <style>
      .cls-1 {
        stroke-width: 0px;
      }
    </style>
  </defs>
  <path class="cls-1" d="m48,5c14.89,0,27,12.11,27,27s-12.11,27-27,27-27-12.11-27-27S33.11,5,48,5m0-5C30.33,0,16,14.33,16,32s14.33,32,32,32,32-14.33,32-32S65.67,0,48,0h0Z"/>
  <path class="cls-1" d="m48,69c11.85,0,22.91,3.03,31.17,8.53,7.63,5.09,11.83,11.65,11.83,18.47s-4.2,13.38-11.83,18.47c-8.25,5.5-19.32,8.53-31.17,8.53s-22.91-3.03-31.17-8.53c-7.63-5.09-11.83-11.65-11.83-18.47s4.2-13.38,11.83-18.47c8.25-5.5,19.32-8.53,31.17-8.53m0-5C21.49,64,0,78.33,0,96s21.49,32,48,32,48-14.33,48-32-21.49-32-48-32h0Z"/>
</svg>